# xmcd CD database file
#
# Track frame offsets:
#	150
#	14246
#	26134
#	39805
#	51164
#	63672
#	74794
#	88772
#	100340
#	112702
#	124590
#	136743
#	149941
#	163264
#	177486
#
# Disc length: 2535 seconds
#
# Revision: 0
# Processed by: cddbd v1.5.1PL0 Copyright (c) Steve Scherf et al.
# Submitted via: CDex 1.50
#
DISCID=e409e50f
DTITLE=Cortijo y su Combo - La Epoca de Oro - Vol 1
DYEAR=2002
DGENRE=Salsa
TTITLE0=quitate de la via perico
TTITLE1=tuntuneco
TTITLE2=mofongo pelao
TTITLE3=pajaro chogui
TTITLE4=el trompo
TTITLE5=a bailar bambule
TTITLE6=yayabo
TTITLE7=la critica
TTITLE8=la hija de la vecina
TTITLE9=madame calalu
TTITLE10=solavaya
TTITLE11=parece mentira
TTITLE12=un telegrama
TTITLE13=piedras en mi camino
TTITLE14=y pedro flores
EXTD=YEAR: 2002
EXTT0=
EXTT1=
EXTT2=
EXTT3=
EXTT4=
EXTT5=
EXTT6=
EXTT7=
EXTT8=
EXTT9=
EXTT10=
EXTT11=
EXTT12=
EXTT13=
EXTT14=
PLAYORDER=
